<svg xmlns="http://www.w3.org/2000/svg" width="477" height="472" viewBox="0 0 477 472">
  <defs>
    <clipPath id="wheelClip">
      <circle cx="227.3" cy="238.6" r="144.0"/>
    </clipPath>
  </defs>
  <rect width="477" height="472" fill="rgb(8,18,28)"/>
  <g clip-path="url(#wheelClip)">
    <path d="M 235.00 390.09 C 224.65 390.72, 211.00 389.68, 202.00 388.24 C 193.00 386.79, 182.50 383.30, 175.00 380.46 C 167.50 377.62, 159.50 374.09, 152.00 369.28 C 144.50 364.47, 131.95 355.04, 125.00 348.40 C 118.05 341.76, 110.64 332.11, 105.66 325.00 C 100.68 317.89, 95.03 308.05, 91.80 301.00 C 88.58 293.95, 86.00 286.10, 84.16 278.00 C 82.33 269.90, 80.10 255.85, 79.57 247.00 C 79.04 238.15, 79.90 226.20, 80.65 219.00 C 81.39 211.80, 82.40 206.35, 84.56 199.00 C 86.73 191.65, 90.83 178.55, 95.08 170.00 C 99.34 161.45, 106.93 149.54, 112.92 142.00 C 118.91 134.46, 128.05 125.56, 135.00 119.71 C 141.95 113.86, 151.31 107.29, 159.26 103.00 C 167.21 98.71, 179.94 93.54, 188.00 91.08 C 196.06 88.61, 205.05 87.23, 213.00 86.57 C 220.95 85.90, 233.05 85.97, 241.00 86.64 C 248.95 87.32, 258.05 88.78, 266.00 91.08 C 273.95 93.37, 287.25 98.80, 294.00 101.94 C 300.75 105.08, 306.45 108.84, 311.00 111.99 C 315.55 115.15, 319.19 118.05, 324.34 123.00 C 329.49 127.95, 340.02 138.40, 345.31 145.00 C 350.60 151.60, 355.90 159.50, 359.58 167.00 C 363.26 174.50, 367.30 185.70, 369.83 195.00 C 372.36 204.30, 375.47 220.75, 376.43 229.00 C 377.39 237.25, 377.35 241.45, 376.23 250.00 C 375.12 258.55, 371.67 276.83, 369.00 285.98 C 366.33 295.13, 362.61 303.30, 358.41 311.00 C 354.21 318.70, 347.21 329.97, 341.00 337.34 C 334.79 344.71, 324.65 354.22, 317.00 360.11 C 309.35 365.99, 296.90 372.99, 290.00 376.58 C 283.10 380.17, 279.25 382.00, 271.00 384.02 C 262.75 386.05, 245.35 389.45, 235.00 390.09 Z M 173.02 190.00 C 176.44 187.90, 177.15 185.15, 192.30 175.00 C 207.45 164.85, 260.66 131.19, 274.00 122.34 C 287.34 113.49, 280.11 117.55, 281.23 116.00 C 282.36 114.45, 284.82 114.02, 281.48 112.00 C 278.15 109.98, 265.82 104.54, 259.00 102.53 C 252.18 100.51, 242.75 99.13, 236.00 98.57 C 229.25 98.01, 221.20 97.76, 214.00 98.79 C 206.80 99.82, 192.54 103.30, 188.00 105.43 C 183.46 107.56, 186.47 101.81, 183.76 113.00 C 181.05 124.19, 172.08 168.60, 169.94 180.00 C 167.80 191.40, 169.05 187.50, 169.51 189.00 C 169.97 190.50, 169.60 192.10, 173.02 190.00 Z M 150.10 237.00 C 151.15 236.78, 151.19 237.95, 152.05 233.00 C 152.90 228.05, 152.78 220.05, 155.79 204.00 C 158.79 187.95, 169.49 139.20, 172.08 126.00 C 174.66 112.80, 173.18 117.84, 173.02 116.00 C 172.85 114.16, 172.35 113.71, 171.00 113.76 C 169.65 113.81, 167.45 114.40, 164.00 116.33 C 160.55 118.27, 152.95 122.87, 148.00 126.66 C 143.05 130.44, 136.25 135.65, 131.00 141.55 C 125.75 147.45, 117.12 159.33, 113.01 166.00 C 108.90 172.67, 104.80 182.19, 103.60 186.00 C 102.40 189.81, 103.74 189.26, 105.00 191.42 C 106.26 193.57, 106.00 193.93, 112.00 200.38 C 118.00 206.84, 139.29 228.99, 145.00 234.48 C 150.71 239.97, 149.04 237.22, 150.10 237.00 Z M 342.97 175.00 C 347.00 175.12, 344.66 173.75, 344.87 173.00 C 345.07 172.25, 346.52 173.60, 344.33 170.00 C 342.15 166.40, 334.99 154.82, 330.29 149.00 C 325.59 143.18, 317.99 135.42, 313.00 131.19 C 308.01 126.97, 300.30 122.10, 297.00 120.85 C 293.70 119.61, 296.85 119.59, 291.00 122.91 C 285.15 126.22, 265.50 138.16, 258.00 142.97 C 250.50 147.77, 244.42 152.25, 241.00 154.95 C 237.58 157.66, 235.79 159.68, 235.19 161.00 C 234.59 162.32, 235.98 163.14, 237.00 163.76 C 238.02 164.39, 239.75 165.33, 242.00 165.18 C 244.25 165.03, 248.25 163.16, 252.00 162.78 C 255.75 162.40, 257.10 161.23, 267.00 162.65 C 276.90 164.06, 306.60 170.37, 318.00 172.22 C 329.40 174.07, 338.94 174.88, 342.97 175.00 Z M 358.65 262.00 C 359.73 260.33, 361.53 255.35, 362.23 251.00 C 362.94 246.65, 363.84 240.20, 363.36 233.00 C 362.87 225.80, 360.57 209.59, 359.01 203.00 C 357.46 196.41, 367.25 193.95, 353.00 189.09 C 338.75 184.23, 278.02 173.32, 264.00 170.60 C 249.98 167.89, 259.93 170.49, 259.53 171.00 C 259.14 171.51, 258.75 171.82, 261.37 174.00 C 263.99 176.18, 263.71 172.86, 277.00 185.53 C 290.29 198.19, 338.30 246.93, 350.00 258.42 C 361.70 269.91, 353.70 261.60, 355.00 262.13 C 356.30 262.67, 357.56 263.67, 358.65 262.00 Z M 229.05 334.00 C 231.45 332.54, 232.71 332.54, 240.00 323.54 C 247.29 314.54, 270.87 283.83, 277.67 274.00 C 284.48 264.17, 283.74 263.55, 285.36 258.00 C 286.98 252.45, 288.62 243.30, 288.47 237.00 C 288.32 230.70, 285.90 220.80, 284.35 216.00 C 282.79 211.20, 280.25 208.06, 278.10 205.00 C 275.95 201.94, 274.06 198.80, 270.00 195.59 C 265.94 192.37, 255.35 185.79, 251.00 183.57 C 246.65 181.35, 244.90 181.39, 241.00 180.78 C 237.10 180.18, 229.35 179.50, 225.00 179.53 C 220.65 179.56, 215.30 180.32, 212.00 180.98 C 208.70 181.64, 205.55 182.91, 203.00 183.92 C 200.45 184.94, 197.76 185.93, 195.00 187.75 C 192.24 189.56, 187.40 193.11, 184.60 196.00 C 181.80 198.89, 178.59 203.25, 176.36 207.00 C 174.14 210.75, 171.08 217.40, 169.77 221.00 C 168.46 224.60, 167.98 227.70, 167.64 231.00 C 167.31 234.30, 167.12 239.10, 167.53 243.00 C 167.94 246.90, 168.44 251.90, 170.38 257.00 C 172.32 262.10, 173.83 266.95, 180.48 277.00 C 187.13 287.05, 208.18 315.56, 214.71 324.00 C 221.24 332.44, 221.85 331.80, 224.00 333.30 C 226.15 334.80, 226.65 335.46, 229.05 334.00 Z M 171.49 291.00 C 181.58 291.55, 173.07 289.75, 173.21 289.00 C 173.34 288.25, 175.81 291.25, 172.38 286.00 C 168.94 280.75, 159.88 265.40, 150.29 254.00 C 140.70 242.60, 115.71 217.49, 108.46 210.00 C 101.22 202.51, 103.57 204.96, 102.00 204.05 C 100.43 203.13, 99.11 202.25, 98.00 203.89 C 96.89 205.54, 95.08 206.88, 94.57 215.00 C 94.05 223.12, 94.06 249.00, 94.57 258.00 C 95.08 267.00, 96.93 271.25, 97.96 275.00 C 98.99 278.75, 100.23 281.45, 101.44 283.00 C 102.64 284.55, 95.49 284.12, 106.00 285.32 C 116.51 286.52, 161.41 290.45, 171.49 291.00 Z M 292.60 360.00 C 296.95 357.44, 311.64 347.41, 317.00 343.06 C 322.36 338.71, 324.03 336.41, 328.32 331.00 C 332.60 325.59, 342.00 312.55, 345.57 307.00 C 349.13 301.45, 350.47 298.05, 352.07 294.00 C 353.67 289.95, 355.78 282.72, 356.22 280.00 C 356.66 277.28, 356.57 277.97, 355.00 275.87 C 353.43 273.77, 352.18 272.34, 345.73 266.00 C 339.28 259.66, 318.41 239.40, 312.00 233.58 C 305.59 227.77, 304.85 227.77, 303.00 227.23 C 301.15 226.70, 300.53 223.89, 299.69 230.00 C 298.84 236.11, 299.29 249.10, 297.36 268.00 C 295.43 286.90, 288.21 342.18, 286.80 356.00 C 285.40 369.82, 287.13 359.53, 288.00 360.13 C 288.87 360.73, 288.25 362.56, 292.60 360.00 Z M 240.50 377.00 C 248.75 376.02, 263.95 372.34, 269.00 370.84 C 274.05 369.34, 272.91 369.38, 274.14 367.00 C 275.37 364.62, 275.68 364.60, 277.22 355.00 C 278.75 345.40, 283.49 312.56, 284.36 303.00 C 285.23 293.44, 289.53 285.60, 283.00 291.30 C 276.47 297.00, 248.47 332.36, 240.82 341.00 C 233.17 349.64, 233.92 347.54, 232.00 348.92 C 230.08 350.31, 229.33 350.23, 228.00 350.24 C 226.67 350.25, 225.97 351.26, 223.12 349.00 C 220.27 346.74, 211.57 337.37, 209.00 335.18 C 206.43 332.99, 210.80 331.90, 206.00 334.39 C 201.20 336.88, 182.71 347.94, 177.00 351.78 C 171.29 355.63, 169.15 358.32, 167.94 360.00 C 166.74 361.68, 168.20 362.19, 168.96 363.00 C 169.72 363.81, 169.24 363.89, 173.00 365.42 C 176.76 366.95, 187.85 371.41, 194.00 373.20 C 200.15 374.99, 207.03 376.79, 214.00 377.36 C 220.97 377.93, 232.25 377.98, 240.50 377.00 Z M 158.56 353.00 C 161.27 351.96, 166.09 349.94, 172.00 346.04 C 177.91 342.14, 194.05 330.46, 197.95 327.00 C 201.85 323.54, 200.09 326.49, 197.99 323.00 C 195.90 319.51, 186.70 307.04, 184.00 303.73 C 181.30 300.42, 181.65 301.55, 180.00 300.93 C 178.35 300.32, 179.60 300.02, 173.00 299.64 C 166.40 299.27, 145.00 299.04, 136.00 298.43 C 127.00 297.83, 117.18 295.82, 113.00 295.60 C 108.82 295.39, 108.97 296.34, 108.13 297.00 C 107.29 297.66, 107.27 298.95, 107.40 300.00 C 107.53 301.05, 105.97 299.47, 109.00 303.97 C 112.03 308.47, 121.89 323.25, 127.58 330.00 C 133.28 336.75, 143.05 345.55, 146.99 349.00 C 150.94 352.45, 152.16 352.40, 153.89 353.00 C 155.63 353.60, 155.84 354.04, 158.56 353.00 Z" fill="rgb(255,255,255)" fill-rule="evenodd"/>
    <path d="M 260.5 170.5 L 349.7 189.2 A 132 132 0 0 1 357.3 261.5 L 260.5 170.5 Z" fill="rgb(8,18,28)"/>
  </g>
  <circle cx="227.3" cy="238.6" r="144.0" fill="none" stroke="rgb(255,255,255)" stroke-width="9.5"/>
  <g>
    <path d="M 68 143 V 94 A 46 46 0 0 1 114 48 H 167" fill="none" stroke="rgb(0,240,245)" stroke-width="21" stroke-linecap="butt" stroke-linejoin="round"/><path d="M 409 143 V 94 A 46 46 0 0 0 363 48 H 310" fill="none" stroke="rgb(0,240,245)" stroke-width="21" stroke-linecap="butt" stroke-linejoin="round"/><path d="M 68 330 V 379 A 46 46 0 0 0 114 425 H 167" fill="none" stroke="rgb(0,240,245)" stroke-width="21" stroke-linecap="butt" stroke-linejoin="round"/><path d="M 409 330 V 379 A 46 46 0 0 1 363 425 H 310" fill="none" stroke="rgb(0,240,245)" stroke-width="21" stroke-linecap="butt" stroke-linejoin="round"/>
    <path d="M 229.00 300.37 C 226.85 301.89, 226.55 300.36, 225.00 299.10 C 223.45 297.85, 222.79 297.57, 218.69 292.00 C 214.60 286.43, 201.58 268.00, 197.72 262.00 C 193.86 256.00, 194.06 255.15, 192.99 252.00 C 191.91 248.85, 190.46 244.75, 190.55 241.00 C 190.65 237.25, 192.04 230.79, 193.60 227.00 C 195.17 223.21, 198.37 218.55, 201.00 215.70 C 203.63 212.85, 207.40 209.78, 211.15 208.00 C 214.90 206.22, 221.22 203.94, 226.00 203.87 C 230.78 203.80, 238.80 206.02, 243.00 207.54 C 247.20 209.06, 251.36 211.68, 254.00 214.00 C 256.64 216.32, 259.03 219.70, 260.60 223.00 C 262.18 226.30, 263.94 232.40, 264.48 236.00 C 265.03 239.60, 264.90 243.70, 264.24 247.00 C 263.58 250.30, 263.81 251.70, 260.08 258.00 C 256.34 264.30, 244.02 282.64, 239.35 289.00 C 234.69 295.36, 231.15 298.86, 229.00 300.37 Z" fill="rgb(0,240,245)"/>
    <path d="M 233.10 258.00 C 235.95 256.88, 241.03 253.23, 243.00 250.98 C 244.97 248.73, 245.73 245.10, 246.21 243.00 C 246.69 240.90, 246.69 238.95, 246.21 237.00 C 245.73 235.05, 244.10 231.65, 243.02 230.00 C 241.94 228.35, 240.80 227.04, 239.00 225.98 C 237.20 224.92, 233.10 223.38, 231.00 222.93 C 228.90 222.47, 226.95 222.54, 225.00 222.96 C 223.05 223.38, 219.65 224.72, 218.00 225.74 C 216.35 226.76, 215.06 228.08, 214.00 229.76 C 212.94 231.45, 211.44 234.86, 210.96 237.00 C 210.48 239.14, 210.31 241.75, 210.79 244.00 C 211.27 246.25, 212.90 250.05, 214.14 252.00 C 215.37 253.95, 217.52 256.01, 219.00 256.98 C 220.48 257.94, 221.89 258.29, 224.00 258.44 C 226.11 258.60, 230.25 259.12, 233.10 258.00 Z" fill="rgb(8,18,28)"/>
  </g>
</svg>